<svg width="54" height="30" viewBox="0 0 54 30" fill="none" xmlns="http://www.w3.org/2000/svg">
<g clip-path="url(#clip0_903_16)">
<rect width="54" height="30" fill="url(#paint0_linear_903_16)"/>
<path d="M44.7503 28.0261C47.9036 24.1817 49.627 19.3633 49.627 14.3911C49.627 9.41894 47.9036 4.60048 44.7503 0.756099C44.6669 0.65457 44.5644 0.570461 44.4485 0.508573C44.3326 0.446685 44.2056 0.40823 44.0749 0.395404C43.9441 0.382578 43.8121 0.395632 43.6864 0.43382C43.5607 0.472009 43.4437 0.534584 43.3422 0.617974C43.2407 0.701363 43.1566 0.803933 43.0947 0.919828C43.0328 1.03572 42.9943 1.16267 42.9815 1.29343C42.9556 1.5575 43.0357 1.82105 43.2041 2.0261C46.0632 5.51261 47.6257 9.88219 47.6257 14.3911C47.6257 18.9 46.0632 23.2696 43.2041 26.7561C43.0357 26.9611 42.9556 27.2247 42.9815 27.4888C43.0074 27.7528 43.1372 27.9958 43.3422 28.1642C43.5473 28.3326 43.8108 28.4127 44.0749 28.3868C44.339 28.3609 44.5819 28.2311 44.7503 28.0261ZM40.2791 24.0161C42.4471 21.2778 43.6267 17.8875 43.6267 14.3948C43.6267 10.9022 42.4471 7.51193 40.2791 4.7736C40.1143 4.56574 39.8737 4.43184 39.6102 4.40136C39.3467 4.37089 39.0819 4.44633 38.8741 4.6111C38.6662 4.77586 38.5323 5.01645 38.5018 5.27994C38.4714 5.54343 38.5468 5.80824 38.7116 6.0161C40.5993 8.40092 41.6264 11.3533 41.6264 14.3948C41.6264 17.4364 40.5993 20.3888 38.7116 22.7736C38.63 22.8765 38.5695 22.9945 38.5335 23.1208C38.4975 23.2471 38.4867 23.3793 38.5018 23.5098C38.5169 23.6402 38.5575 23.7664 38.6214 23.8812C38.6853 23.996 38.7711 24.097 38.8741 24.1786C38.977 24.2602 39.095 24.3207 39.2213 24.3567C39.3476 24.3927 39.4798 24.4035 39.6102 24.3884C39.7407 24.3733 39.8669 24.3326 39.9817 24.2688C40.0965 24.2049 40.1975 24.119 40.2791 24.0161ZM35.8091 19.9836C36.9896 18.3593 37.6254 16.4028 37.6254 14.3948C37.6254 12.3869 36.9896 10.4304 35.8091 8.8061C35.6529 8.5916 35.418 8.44792 35.1559 8.40667C34.8938 8.36541 34.6261 8.42995 34.4116 8.5861C34.1971 8.74224 34.0534 8.9772 34.0121 9.23928C33.9709 9.50137 34.0354 9.7691 34.1916 9.9836C35.1239 11.2655 35.626 12.8098 35.626 14.3948C35.626 15.9799 35.1239 17.5242 34.1916 18.8061C34.1143 18.9123 34.0586 19.0327 34.0278 19.1604C33.9971 19.2881 33.9917 19.4206 34.0121 19.5504C34.0326 19.6802 34.0784 19.8047 34.1469 19.9167C34.2154 20.0288 34.3054 20.1263 34.4116 20.2036C34.5178 20.2809 34.6382 20.3366 34.7659 20.3673C34.8936 20.3981 35.0261 20.4035 35.1559 20.383C35.2857 20.3626 35.4101 20.3168 35.5222 20.2483C35.6343 20.1797 35.7318 20.0898 35.8091 19.9836Z" fill="#4556A9"/>
<path d="M27.8308 17.4162C26.8514 16.4415 24.9802 13.4423 23.8372 9.17655C23.1507 6.61476 21.4747 4.43057 19.1779 3.10449C16.8811 1.77841 14.1515 1.41905 11.5897 2.10548C9.02792 2.79191 6.84373 4.4679 5.51765 6.76474C4.19156 9.06158 3.83221 11.7911 4.51864 14.3529C5.66198 18.6199 5.53947 22.152 5.17864 23.4858C5.08615 23.8251 5.08476 24.1828 5.17462 24.5228C5.26447 24.8628 5.4424 25.1731 5.69045 25.4224C5.93849 25.6718 6.2479 25.8512 6.58745 25.9428C6.92701 26.0344 7.2847 26.0348 7.62447 25.944L12.5519 24.6237C13.0669 25.6545 13.9222 26.4757 14.973 26.9485C16.0238 27.4214 17.2057 27.5167 18.3187 27.2185C19.4317 26.9202 20.4076 26.2467 21.0812 25.3119C21.7548 24.377 22.0849 23.2382 22.0156 22.088L26.943 20.7677C27.2825 20.6762 27.5918 20.4969 27.8399 20.2478C28.088 19.9986 28.266 19.6885 28.3561 19.3487C28.4461 19.0088 28.4449 18.6512 28.3527 18.3119C28.2605 17.9727 28.0805 17.6637 27.8308 17.4162ZM17.8014 25.2877C17.2022 25.448 16.5681 25.4187 15.9863 25.2038C15.4045 24.9889 14.9036 24.599 14.5526 24.0877L20.0149 22.624C19.9665 23.2424 19.7277 23.8305 19.3313 24.3075C18.9349 24.7846 18.4004 25.127 17.8014 25.2877ZM7.10683 24.0122C7.60819 22.1645 7.61777 18.1916 6.45049 13.8353C5.90135 11.7859 6.18883 9.60222 7.2497 7.76474C8.31056 5.92727 10.0579 4.58648 12.1073 4.03734C14.1568 3.48819 16.3404 3.77567 18.1779 4.83654C20.0154 5.89741 21.3562 7.64475 21.9053 9.69419C23.0716 14.0469 25.0639 17.4833 26.4253 18.8358L7.10683 24.0122Z" fill="#4556A9"/>
</g>
<defs>
<linearGradient id="paint0_linear_903_16" x1="4.41374e-07" y1="-4.25063" x2="25.1921" y2="52.0783" gradientUnits="userSpaceOnUse">
<stop stop-color="#A4CADB"/>
<stop offset="1" stop-color="#9AE1FF" stop-opacity="0"/>
</linearGradient>
<clipPath id="clip0_903_16">
<rect width="54" height="30" fill="white"/>
</clipPath>
</defs>
</svg>
